<svg xmlns="http://www.w3.org/2000/svg" viewBox="0 0 200 300" fill="none" stroke="#1a2e23" stroke-width="1.5">
  <!-- Statue of Liberty outline -->
  <path d="M90,180 L85,270 L65,270 L65,280 L135,280 L135,270 L115,270 L110,180"/>
  <rect x="55" y="278" width="90" height="22" rx="3"/>
  <ellipse cx="100" cy="155" rx="20" ry="30"/>
  <circle cx="100" cy="120" r="14"/>
  <path d="M86,120 L80,105 L75,85"/>
  <path d="M114,120 L120,105 L125,85"/>
  <path d="M100,106 L100,80"/>
  <path d="M92,108 L85,75"/>
  <path d="M108,108 L115,75"/>
  <path d="M100,80 L95,68 L100,60 L105,68 L100,80"/>
  <path d="M70,135 L55,120"/>
  <rect x="48" y="112" width="12" height="16" rx="2"/>
</svg>
