<svg xmlns="http://www.w3.org/2000/svg" viewBox="0 0 200 300" fill="none" stroke="#1a2e23" stroke-width="1.5">
  <!-- Minar-e-Pakistan outline -->
  <path d="M95,30 L95,260"/>
  <path d="M105,30 L105,260"/>
  <polygon points="100,5 93,30 107,30"/>
  <line x1="100" y1="0" x2="100" y2="5"/>
  <rect x="80" y="255" width="40" height="12" rx="2"/>
  <path d="M70,265 L70,275 L130,275 L130,265"/>
  <rect x="60" y="273" width="80" height="10" rx="2"/>
  <rect x="50" y="281" width="100" height="19" rx="3"/>
  <ellipse cx="100" cy="255" rx="35" ry="8"/>
  <ellipse cx="100" cy="240" rx="28" ry="6"/>
  <ellipse cx="100" cy="228" rx="22" ry="5"/>
  <line x1="88" y1="60" x2="112" y2="60"/>
  <line x1="88" y1="90" x2="112" y2="90"/>
  <line x1="88" y1="120" x2="112" y2="120"/>
  <line x1="88" y1="150" x2="112" y2="150"/>
  <path d="M115,195 Q135,175 130,155" />
  <circle cx="133" cy="152" r="5"/>
  <path d="M128,148 L132,142"/>
</svg>
