<svg xmlns="http://www.w3.org/2000/svg" viewBox="0 0 200 300" fill="none" stroke="#1a2e23" stroke-width="1.5">
  <!-- Big Ben outline -->
  <rect x="70" y="80" width="60" height="180" rx="2"/>
  <rect x="60" y="250" width="80" height="20" rx="2"/>
  <rect x="50" y="265" width="100" height="15" rx="2"/>
  <rect x="45" y="278" width="110" height="22" rx="3"/>
  <rect x="78" y="40" width="44" height="44" rx="2"/>
  <polygon points="100,8 78,40 122,40"/>
  <line x1="100" y1="0" x2="100" y2="8"/>
  <circle cx="100" cy="62" r="14"/>
  <line x1="100" y1="62" x2="100" y2="52"/>
  <line x1="100" y1="62" x2="108" y2="62"/>
  <rect x="80" y="95" width="16" height="28" rx="4"/>
  <rect x="104" y="95" width="16" height="28" rx="4"/>
  <rect x="80" y="135" width="16" height="28" rx="4"/>
  <rect x="104" y="135" width="16" height="28" rx="4"/>
  <rect x="80" y="175" width="16" height="28" rx="4"/>
  <rect x="104" y="175" width="16" height="28" rx="4"/>
  <rect x="88" y="215" width="24" height="35" rx="3"/>
</svg>
