<svg xmlns="http://www.w3.org/2000/svg" viewBox="0 0 900 500" fill="white">
  <!-- Y/Logo bird shape -->
  <path d="M160,495 C152,470 30,120 10,30 L10,10 L80,10 C100,70 145,190 160,240 C175,190 220,70 240,10 L310,10 L310,30 C290,120 168,470 160,495 Z"/>

  <!-- O letter -->
  <path d="M460,10 Q620,10 620,130 L620,380 Q620,500 460,500 Q300,500 300,380 L300,130 Q300,10 460,10 Z M460,90 Q380,90 380,150 L380,360 Q380,420 460,420 Q540,420 540,360 L540,150 Q540,90 460,90 Z" fill-rule="evenodd"/>

  <!-- P letter -->
  <path d="M640,10 L730,10 Q890,10 890,140 Q890,280 730,280 L730,500 L640,500 Z M730,90 Q810,90 810,140 Q810,200 730,200 Z" fill-rule="evenodd"/>
</svg>
